<mxfile host="app.diagrams.net" modified="2021-09-16T15:03:30.039Z" agent="5.0 (Windows NT 10.0; Win64; x64) AppleWebKit/537.36 (KHTML, like Gecko) Chrome/93.0.4577.82 Safari/537.36" etag="er_qlZps3yrTeQAsu7Mt" version="15.1.4" type="github">
  <diagram id="kgpKYQtTHZ0yAKxKKP6v" name="Page-1">
    <mxGraphModel dx="2128" dy="585" grid="1" gridSize="10" guides="1" tooltips="1" connect="1" arrows="1" fold="1" page="1" pageScale="1" pageWidth="850" pageHeight="1100" math="0" shadow="0">
      <root>
        <mxCell id="0" />
        <mxCell id="1" parent="0" />
        <mxCell id="3nuBFxr9cyL0pnOWT2aG-1" value="Log in Form" style="shape=umlLifeline;perimeter=lifelinePerimeter;container=1;collapsible=0;recursiveResize=0;rounded=0;shadow=0;strokeWidth=1;" parent="1" vertex="1">
          <mxGeometry x="120" y="80" width="100" height="610" as="geometry" />
        </mxCell>
        <mxCell id="3nuBFxr9cyL0pnOWT2aG-5" value="Reseravtion Controller" style="shape=umlLifeline;perimeter=lifelinePerimeter;container=1;collapsible=0;recursiveResize=0;rounded=0;shadow=0;strokeWidth=1;" parent="1" vertex="1">
          <mxGeometry x="280" y="80" width="120" height="650" as="geometry" />
        </mxCell>
        <mxCell id="KZk-TJ40o_NvBOc9cw_s-1" value="Actor" style="shape=umlActor;verticalLabelPosition=bottom;verticalAlign=top;html=1;outlineConnect=0;" vertex="1" parent="1">
          <mxGeometry x="-15" y="70" width="30" height="60" as="geometry" />
        </mxCell>
        <mxCell id="KZk-TJ40o_NvBOc9cw_s-3" value="" style="endArrow=none;dashed=1;html=1;" edge="1" parent="1" target="KZk-TJ40o_NvBOc9cw_s-1">
          <mxGeometry width="50" height="50" relative="1" as="geometry">
            <mxPoint y="730" as="sourcePoint" />
            <mxPoint x="1" y="150" as="targetPoint" />
          </mxGeometry>
        </mxCell>
        <mxCell id="KZk-TJ40o_NvBOc9cw_s-6" value="Reservation Screen" style="rounded=0;whiteSpace=wrap;html=1;" vertex="1" parent="1">
          <mxGeometry x="470" y="80" width="120" height="40" as="geometry" />
        </mxCell>
        <mxCell id="KZk-TJ40o_NvBOc9cw_s-7" value="Confirmation screen" style="rounded=0;whiteSpace=wrap;html=1;" vertex="1" parent="1">
          <mxGeometry x="630" y="80" width="120" height="40" as="geometry" />
        </mxCell>
        <mxCell id="KZk-TJ40o_NvBOc9cw_s-8" value="Place db" style="rounded=0;whiteSpace=wrap;html=1;" vertex="1" parent="1">
          <mxGeometry x="800" y="80" width="120" height="40" as="geometry" />
        </mxCell>
        <mxCell id="KZk-TJ40o_NvBOc9cw_s-9" value="Credit Info" style="rounded=0;whiteSpace=wrap;html=1;" vertex="1" parent="1">
          <mxGeometry x="960" y="80" width="120" height="40" as="geometry" />
        </mxCell>
        <mxCell id="KZk-TJ40o_NvBOc9cw_s-10" value="Log in(Email , Password)" style="endArrow=classic;html=1;entryX=0.06;entryY=0.478;entryDx=0;entryDy=0;entryPerimeter=0;" edge="1" parent="1" source="KZk-TJ40o_NvBOc9cw_s-13" target="KZk-TJ40o_NvBOc9cw_s-12">
          <mxGeometry width="50" height="50" relative="1" as="geometry">
            <mxPoint x="30" y="190" as="sourcePoint" />
            <mxPoint x="130" y="191" as="targetPoint" />
          </mxGeometry>
        </mxCell>
        <mxCell id="KZk-TJ40o_NvBOc9cw_s-12" value="" style="points=[];perimeter=orthogonalPerimeter;rounded=0;shadow=0;strokeWidth=1;" vertex="1" parent="1">
          <mxGeometry x="165" y="150" width="10" height="80" as="geometry" />
        </mxCell>
        <mxCell id="KZk-TJ40o_NvBOc9cw_s-13" value="" style="points=[];perimeter=orthogonalPerimeter;rounded=0;shadow=0;strokeWidth=1;" vertex="1" parent="1">
          <mxGeometry x="-5" y="170" width="10" height="40" as="geometry" />
        </mxCell>
        <mxCell id="KZk-TJ40o_NvBOc9cw_s-16" value="Enter Data (Date , location)" style="endArrow=classic;html=1;exitX=1.5;exitY=0.348;exitDx=0;exitDy=0;exitPerimeter=0;entryX=0.06;entryY=0.458;entryDx=0;entryDy=0;entryPerimeter=0;" edge="1" parent="1">
          <mxGeometry width="50" height="50" relative="1" as="geometry">
            <mxPoint x="10" y="250.03999999999996" as="sourcePoint" />
            <mxPoint x="525.5999999999999" y="246.64" as="targetPoint" />
          </mxGeometry>
        </mxCell>
        <mxCell id="KZk-TJ40o_NvBOc9cw_s-17" value="log in(email,pass)" style="endArrow=classic;html=1;exitX=1.18;exitY=0.478;exitDx=0;exitDy=0;exitPerimeter=0;entryX=0.1;entryY=0.467;entryDx=0;entryDy=0;entryPerimeter=0;" edge="1" parent="1" source="KZk-TJ40o_NvBOc9cw_s-12" target="KZk-TJ40o_NvBOc9cw_s-18">
          <mxGeometry width="50" height="50" relative="1" as="geometry">
            <mxPoint x="550" y="330" as="sourcePoint" />
            <mxPoint x="280" y="188" as="targetPoint" />
          </mxGeometry>
        </mxCell>
        <mxCell id="KZk-TJ40o_NvBOc9cw_s-18" value="" style="points=[];perimeter=orthogonalPerimeter;rounded=0;shadow=0;strokeWidth=1;" vertex="1" parent="1">
          <mxGeometry x="335" y="175" width="10" height="30" as="geometry" />
        </mxCell>
        <mxCell id="KZk-TJ40o_NvBOc9cw_s-20" value="" style="endArrow=none;dashed=1;html=1;exitX=0.5;exitY=1;exitDx=0;exitDy=0;" edge="1" parent="1" source="KZk-TJ40o_NvBOc9cw_s-6">
          <mxGeometry width="50" height="50" relative="1" as="geometry">
            <mxPoint x="530" y="180" as="sourcePoint" />
            <mxPoint x="530" y="620" as="targetPoint" />
          </mxGeometry>
        </mxCell>
        <mxCell id="KZk-TJ40o_NvBOc9cw_s-21" value="" style="points=[];perimeter=orthogonalPerimeter;rounded=0;shadow=0;strokeWidth=1;" vertex="1" parent="1">
          <mxGeometry x="525" y="210" width="10" height="80" as="geometry" />
        </mxCell>
        <mxCell id="KZk-TJ40o_NvBOc9cw_s-22" value="" style="points=[];perimeter=orthogonalPerimeter;rounded=0;shadow=0;strokeWidth=1;" vertex="1" parent="1">
          <mxGeometry x="335" y="220" width="10" height="290" as="geometry" />
        </mxCell>
        <mxCell id="KZk-TJ40o_NvBOc9cw_s-23" value="check place(location)" style="endArrow=classic;html=1;exitX=-0.02;exitY=0.728;exitDx=0;exitDy=0;exitPerimeter=0;" edge="1" parent="1" source="KZk-TJ40o_NvBOc9cw_s-21">
          <mxGeometry width="50" height="50" relative="1" as="geometry">
            <mxPoint x="550" y="330" as="sourcePoint" />
            <mxPoint x="340" y="268" as="targetPoint" />
          </mxGeometry>
        </mxCell>
        <mxCell id="KZk-TJ40o_NvBOc9cw_s-24" value="Check if available(Date , location)" style="endArrow=classic;html=1;" edge="1" parent="1" source="KZk-TJ40o_NvBOc9cw_s-22">
          <mxGeometry width="50" height="50" relative="1" as="geometry">
            <mxPoint x="550" y="330" as="sourcePoint" />
            <mxPoint x="856" y="279" as="targetPoint" />
          </mxGeometry>
        </mxCell>
        <mxCell id="KZk-TJ40o_NvBOc9cw_s-25" value="" style="endArrow=none;dashed=1;html=1;exitX=0.5;exitY=1;exitDx=0;exitDy=0;" edge="1" parent="1">
          <mxGeometry width="50" height="50" relative="1" as="geometry">
            <mxPoint x="689.5" y="120" as="sourcePoint" />
            <mxPoint x="690" y="700.7999877929688" as="targetPoint" />
          </mxGeometry>
        </mxCell>
        <mxCell id="KZk-TJ40o_NvBOc9cw_s-26" value="" style="endArrow=none;dashed=1;html=1;exitX=0.5;exitY=1;exitDx=0;exitDy=0;" edge="1" parent="1">
          <mxGeometry width="50" height="50" relative="1" as="geometry">
            <mxPoint x="859.5" y="120" as="sourcePoint" />
            <mxPoint x="860" y="721.6000366210938" as="targetPoint" />
          </mxGeometry>
        </mxCell>
        <mxCell id="KZk-TJ40o_NvBOc9cw_s-27" value="" style="endArrow=none;dashed=1;html=1;exitX=0.5;exitY=1;exitDx=0;exitDy=0;" edge="1" parent="1">
          <mxGeometry width="50" height="50" relative="1" as="geometry">
            <mxPoint x="1019.5" y="120" as="sourcePoint" />
            <mxPoint x="1020" y="651.5999755859375" as="targetPoint" />
          </mxGeometry>
        </mxCell>
        <mxCell id="KZk-TJ40o_NvBOc9cw_s-28" value="" style="points=[];perimeter=orthogonalPerimeter;rounded=0;shadow=0;strokeWidth=1;" vertex="1" parent="1">
          <mxGeometry x="855" y="260" width="10" height="220" as="geometry" />
        </mxCell>
        <mxCell id="KZk-TJ40o_NvBOc9cw_s-30" value="Check Withdraw(ID , password)" style="endArrow=classic;html=1;exitX=0.9;exitY=0.767;exitDx=0;exitDy=0;exitPerimeter=0;entryX=0.5;entryY=0.557;entryDx=0;entryDy=0;entryPerimeter=0;" edge="1" parent="1">
          <mxGeometry width="50" height="50" relative="1" as="geometry">
            <mxPoint x="344" y="298.03" as="sourcePoint" />
            <mxPoint x="1020" y="297.99" as="targetPoint" />
          </mxGeometry>
        </mxCell>
        <mxCell id="KZk-TJ40o_NvBOc9cw_s-31" value="" style="points=[];perimeter=orthogonalPerimeter;rounded=0;shadow=0;strokeWidth=1;" vertex="1" parent="1">
          <mxGeometry x="1015" y="250" width="10" height="260" as="geometry" />
        </mxCell>
        <mxCell id="KZk-TJ40o_NvBOc9cw_s-35" value="alt" style="shape=umlFrame;whiteSpace=wrap;html=1;width=30;height=20;boundedLbl=1;verticalAlign=middle;align=left;spacingLeft=5;" vertex="1" parent="1">
          <mxGeometry x="230" y="320" width="950" height="190" as="geometry" />
        </mxCell>
        <mxCell id="KZk-TJ40o_NvBOc9cw_s-40" value="" style="html=1;verticalAlign=bottom;labelBackgroundColor=none;endArrow=block;endFill=1;dashed=1;" edge="1" parent="1" source="KZk-TJ40o_NvBOc9cw_s-31">
          <mxGeometry width="160" relative="1" as="geometry">
            <mxPoint x="530" y="340" as="sourcePoint" />
            <mxPoint x="350" y="330" as="targetPoint" />
          </mxGeometry>
        </mxCell>
        <mxCell id="KZk-TJ40o_NvBOc9cw_s-41" value="payment confirmed" style="edgeLabel;html=1;align=center;verticalAlign=middle;resizable=0;points=[];" vertex="1" connectable="0" parent="KZk-TJ40o_NvBOc9cw_s-40">
          <mxGeometry x="-0.1567" relative="1" as="geometry">
            <mxPoint x="1" as="offset" />
          </mxGeometry>
        </mxCell>
        <mxCell id="KZk-TJ40o_NvBOc9cw_s-45" value="" style="html=1;verticalAlign=bottom;labelBackgroundColor=none;endArrow=block;endFill=1;dashed=1;" edge="1" parent="1">
          <mxGeometry width="160" relative="1" as="geometry">
            <mxPoint x="855" y="356" as="sourcePoint" />
            <mxPoint x="350" y="351" as="targetPoint" />
          </mxGeometry>
        </mxCell>
        <mxCell id="KZk-TJ40o_NvBOc9cw_s-46" value="place reserved&amp;nbsp;" style="edgeLabel;html=1;align=center;verticalAlign=middle;resizable=0;points=[];" vertex="1" connectable="0" parent="KZk-TJ40o_NvBOc9cw_s-45">
          <mxGeometry x="-0.1567" relative="1" as="geometry">
            <mxPoint x="1" as="offset" />
          </mxGeometry>
        </mxCell>
        <mxCell id="KZk-TJ40o_NvBOc9cw_s-59" value="" style="html=1;verticalAlign=bottom;labelBackgroundColor=none;endArrow=block;endFill=1;dashed=1;exitX=-0.14;exitY=0.798;exitDx=0;exitDy=0;exitPerimeter=0;" edge="1" parent="1">
          <mxGeometry width="160" relative="1" as="geometry">
            <mxPoint x="1014.9999999999999" y="439.99999999999994" as="sourcePoint" />
            <mxPoint x="341.4" y="440.2" as="targetPoint" />
          </mxGeometry>
        </mxCell>
        <mxCell id="KZk-TJ40o_NvBOc9cw_s-60" value="payment unconfirmed" style="edgeLabel;html=1;align=center;verticalAlign=middle;resizable=0;points=[];" vertex="1" connectable="0" parent="KZk-TJ40o_NvBOc9cw_s-59">
          <mxGeometry x="-0.1567" relative="1" as="geometry">
            <mxPoint x="1" as="offset" />
          </mxGeometry>
        </mxCell>
        <mxCell id="KZk-TJ40o_NvBOc9cw_s-62" value="" style="html=1;verticalAlign=bottom;labelBackgroundColor=none;endArrow=block;endFill=1;dashed=1;" edge="1" parent="1">
          <mxGeometry width="160" relative="1" as="geometry">
            <mxPoint x="850" y="464" as="sourcePoint" />
            <mxPoint x="345" y="464.42" as="targetPoint" />
          </mxGeometry>
        </mxCell>
        <mxCell id="KZk-TJ40o_NvBOc9cw_s-63" value="place unavailable" style="edgeLabel;html=1;align=center;verticalAlign=middle;resizable=0;points=[];" vertex="1" connectable="0" parent="KZk-TJ40o_NvBOc9cw_s-62">
          <mxGeometry x="-0.1567" relative="1" as="geometry">
            <mxPoint x="1" as="offset" />
          </mxGeometry>
        </mxCell>
        <mxCell id="KZk-TJ40o_NvBOc9cw_s-64" value="show confirmation message()" style="endArrow=classic;html=1;" edge="1" parent="1" source="KZk-TJ40o_NvBOc9cw_s-22">
          <mxGeometry width="50" height="50" relative="1" as="geometry">
            <mxPoint x="610" y="320" as="sourcePoint" />
            <mxPoint x="680" y="370" as="targetPoint" />
            <Array as="points">
              <mxPoint x="580" y="370" />
            </Array>
          </mxGeometry>
        </mxCell>
        <mxCell id="KZk-TJ40o_NvBOc9cw_s-65" value="" style="points=[];perimeter=orthogonalPerimeter;rounded=0;shadow=0;strokeWidth=1;" vertex="1" parent="1">
          <mxGeometry x="685" y="365" width="10" height="30" as="geometry" />
        </mxCell>
        <mxCell id="KZk-TJ40o_NvBOc9cw_s-67" value="show ERROR message()" style="endArrow=classic;html=1;" edge="1" parent="1">
          <mxGeometry width="50" height="50" relative="1" as="geometry">
            <mxPoint x="350" y="500" as="sourcePoint" />
            <mxPoint x="685" y="500" as="targetPoint" />
            <Array as="points">
              <mxPoint x="585" y="500" />
            </Array>
          </mxGeometry>
        </mxCell>
        <mxCell id="KZk-TJ40o_NvBOc9cw_s-69" value="" style="points=[];perimeter=orthogonalPerimeter;rounded=0;shadow=0;strokeWidth=1;" vertex="1" parent="1">
          <mxGeometry x="685" y="480" width="10" height="30" as="geometry" />
        </mxCell>
        <mxCell id="KZk-TJ40o_NvBOc9cw_s-71" value="Approved" style="text;html=1;strokeColor=none;fillColor=none;align=center;verticalAlign=middle;whiteSpace=wrap;rounded=0;" vertex="1" parent="1">
          <mxGeometry x="240" y="345" width="40" height="20" as="geometry" />
        </mxCell>
        <mxCell id="KZk-TJ40o_NvBOc9cw_s-72" value="Fail" style="text;html=1;strokeColor=none;fillColor=none;align=center;verticalAlign=middle;whiteSpace=wrap;rounded=0;" vertex="1" parent="1">
          <mxGeometry x="230" y="420" width="40" height="20" as="geometry" />
        </mxCell>
        <mxCell id="KZk-TJ40o_NvBOc9cw_s-73" value="" style="endArrow=none;dashed=1;html=1;exitX=0.001;exitY=0.498;exitDx=0;exitDy=0;exitPerimeter=0;" edge="1" parent="1" source="KZk-TJ40o_NvBOc9cw_s-35">
          <mxGeometry width="50" height="50" relative="1" as="geometry">
            <mxPoint x="610" y="380" as="sourcePoint" />
            <mxPoint x="1180" y="415" as="targetPoint" />
          </mxGeometry>
        </mxCell>
        <mxCell id="KZk-TJ40o_NvBOc9cw_s-75" value="Return the message()" style="html=1;verticalAlign=bottom;labelBackgroundColor=none;endArrow=block;endFill=1;dashed=1;" edge="1" parent="1">
          <mxGeometry width="160" relative="1" as="geometry">
            <mxPoint x="684" y="580" as="sourcePoint" />
            <mxPoint x="5" y="580" as="targetPoint" />
          </mxGeometry>
        </mxCell>
        <mxCell id="KZk-TJ40o_NvBOc9cw_s-76" value="" style="points=[];perimeter=orthogonalPerimeter;rounded=0;shadow=0;strokeWidth=1;" vertex="1" parent="1">
          <mxGeometry x="685" y="570" width="10" height="30" as="geometry" />
        </mxCell>
        <mxCell id="KZk-TJ40o_NvBOc9cw_s-78" value="" style="points=[];perimeter=orthogonalPerimeter;rounded=0;shadow=0;strokeWidth=1;" vertex="1" parent="1">
          <mxGeometry x="-5" y="230" width="10" height="370" as="geometry" />
        </mxCell>
      </root>
    </mxGraphModel>
  </diagram>
</mxfile>
